# xmcd
# 
# Track frame offsets:
#     150
#     12937
#     25012
#     41475
#     57937
#     70875
#     81525
#     94875
#     105375
#     121425
#     130687
#     144150
#     156412
#     171150
#     183600
#     199020
# 
# Disc length: 2875
# 
# Revision: 4
# Processed by: cddbd v1.5.2PL0 Copyright (c) Steve Scherf et al.
# Submitted via: BonkEnc v1.0.8
# 
DISCID=d80b3910
DTITLE=Del McCoury - High Lonesome and Blue
DYEAR=2004
DGENRE=Old Time
TTITLE0=Road of Love
TTITLE1=Lonesome Wind
TTITLE2=I Feel the Blues Moving In
TTITLE3=You'll Find Her Name Written There
TTITLE4=High on a Mountain
TTITLE5=I'll Pretend It's Raining
TTITLE6=Don't Our Love Look Natural?
TTITLE7=Cheek to Cheek with the Blues
TTITLE8=Old Memories Mean Nothing to Me
TTITLE9=If You've got the Money Honey
TTITLE10=Queen Anne's Lace
TTITLE11=If You Need a Fool
TTITLE12=The Bluest Man in Town
TTITLE13=The Cold Hard Facts
TTITLE14=Blackjack County Chains
TTITLE15=Don't Stop the Music
EXTD=
EXTT0=
EXTT1=
EXTT2=
EXTT3=
EXTT4=
EXTT5=
EXTT6=
EXTT7=
EXTT8=
EXTT9=
EXTT10=
EXTT11=
EXTT12=
EXTT13=
EXTT14=
EXTT15=
PLAYORDER=
